<?xml version="1.0" standalone="no"?>
<!DOCTYPE svg PUBLIC "-//W3C//DTD SVG 20010904//EN"
 "http://www.w3.org/TR/2001/REC-SVG-20010904/DTD/svg10.dtd">
<svg version="1.0" xmlns="http://www.w3.org/2000/svg"
 width="2000.000000pt" height="2000.000000pt" viewBox="0 0 2000.000000 2000.000000"
 preserveAspectRatio="xMidYMid meet">
<metadata>
Created by potrace 1.11, written by Peter Selinger 2001-2013
</metadata>
<g transform="translate(0.000000,2000.000000) scale(0.100000,-0.100000)"
fill="#000000" stroke="none">
<path d="M2955 19972 c0 -9 4 -23 9 -30 4 -6 3 -12 -2 -12 -5 0 -8 -45 -8
-100 1 -55 -2 -100 -5 -100 -4 0 -6 -17 -4 -37 1 -21 -2 -44 -7 -50 -7 -9 -7
-13 1 -13 13 0 10 -22 -4 -32 -6 -5 -6 -8 1 -8 7 0 9 -15 4 -45 -4 -25 -3 -48
2 -51 4 -3 5 -11 1 -17 -12 -20 -12 -37 0 -37 9 0 9 -2 0 -8 -8 -5 -13 -44
-14 -112 -2 -58 -6 -115 -10 -127 -5 -13 -4 -25 2 -28 5 -4 7 -11 3 -16 -6
-11 -16 -215 -18 -381 0 -53 -3 -95 -6 -93 -3 2 -5 -48 -5 -111 0 -63 -2 -114
-5 -114 -3 0 -6 -27 -6 -60 -1 -41 2 -57 10 -53 8 5 8 2 0 -8 -7 -8 -11 -38
-10 -66 0 -29 -1 -53 -4 -53 -3 0 -5 -22 -6 -50 0 -32 3 -47 10 -43 6 4 6 0
-1 -8 -8 -10 -14 -66 -17 -153 -2 -76 -7 -140 -10 -143 -3 -3 -1 -14 5 -24 5
-11 6 -19 2 -19 -5 0 -9 -42 -10 -92 -1 -51 -2 -93 -3 -93 -1 0 -3 -38 -4 -85
-1 -47 -5 -90 -9 -97 -4 -6 -3 -14 2 -18 6 -3 7 -15 1 -29 -4 -12 -4 -29 0
-36 5 -8 6 -19 2 -24 -5 -9 -10 -91 -15 -256 -2 -36 -6 -70 -10 -77 -4 -6 -3
-15 3 -18 6 -4 7 -12 3 -18 -5 -7 -8 -49 -8 -94 0 -50 -4 -83 -10 -83 -5 0 -3
-5 5 -10 8 -5 11 -10 5 -10 -6 0 -9 -26 -9 -60 1 -39 -2 -60 -10 -60 -7 0 -7
-3 -1 -8 12 -9 14 -92 1 -92 -4 0 -3 -7 4 -15 10 -12 10 -15 0 -15 -9 0 -10
-3 -1 -13 6 -8 7 -17 3 -21 -11 -11 -9 -50 3 -58 7 -5 7 -8 0 -8 -11 0 -16
-77 -19 -267 0 -51 -3 -93 -6 -93 -3 0 -6 -49 -7 -109 -4 -148 -10 -238 -17
-250 -4 -5 -2 -12 4 -16 6 -4 8 -11 5 -16 -6 -8 -13 -149 -19 -365 -1 -49 -4
-94 -7 -100 -2 -5 -4 -60 -4 -121 0 -62 -3 -113 -6 -113 -3 0 -4 -16 -3 -35 2
-19 -1 -37 -7 -40 -5 -4 -6 -12 -2 -18 11 -19 11 -57 -1 -57 -7 0 -7 -3 1 -11
6 -6 8 -23 3 -45 -5 -21 -4 -34 2 -34 7 0 7 -4 1 -12 -5 -7 -9 -61 -9 -120 1
-60 -2 -108 -5 -108 -3 0 -5 -33 -4 -72 0 -40 -3 -79 -8 -85 -6 -9 -5 -13 3
-13 8 0 9 -4 3 -12 -11 -15 -11 -28 0 -45 4 -6 4 -14 -1 -16 -4 -3 -7 -33 -7
-66 0 -34 -2 -61 -5 -61 -3 0 -5 -42 -4 -93 0 -50 -4 -100 -8 -109 -6 -12 -5
-18 2 -18 6 0 8 -5 5 -10 -3 -6 -8 -61 -11 -122 -3 -72 -9 -115 -17 -120 -13
-8 -117 -108 -117 -113 0 -9 -76 -79 -83 -77 -5 1 -6 -2 -3 -7 4 -5 1 -13 -7
-18 -22 -14 -167 -191 -167 -204 0 -7 -3 -9 -7 -6 -5 6 -41 -34 -35 -40 1 -2
-6 -11 -15 -21 -10 -10 -25 -29 -33 -42 -8 -13 -23 -32 -33 -42 -9 -10 -14
-18 -10 -18 3 0 -3 -10 -14 -22 -11 -13 -28 -38 -39 -55 -10 -18 -22 -33 -27
-33 -4 0 -5 -5 -2 -10 3 -6 -1 -13 -9 -16 -9 -3 -14 -10 -11 -14 2 -4 -4 -18
-15 -30 -11 -12 -17 -26 -15 -30 3 -4 -2 -10 -10 -14 -8 -3 -15 -15 -15 -26 0
-11 -6 -23 -14 -26 -12 -5 -25 -29 -30 -57 0 -4 -6 -11 -13 -15 -6 -4 -15 -20
-18 -35 -4 -15 -11 -27 -16 -27 -5 0 -9 -9 -9 -20 0 -11 -4 -20 -9 -20 -5 0
-13 -10 -17 -22 -3 -13 -26 -64 -50 -115 -24 -50 -46 -103 -50 -117 -3 -14
-10 -26 -15 -26 -5 0 -8 -3 -7 -7 3 -11 -55 -157 -64 -161 -5 -2 -5 -8 -2 -13
3 -6 0 -16 -6 -24 -7 -8 -9 -15 -5 -15 4 0 2 -6 -4 -13 -6 -8 -8 -17 -4 -20 3
-4 1 -7 -5 -7 -7 0 -11 -3 -10 -7 1 -5 -4 -26 -10 -48 -6 -22 -10 -43 -9 -46
1 -3 -4 -13 -11 -22 -8 -9 -11 -21 -7 -27 3 -5 1 -10 -4 -10 -6 0 -10 -3 -10
-7 1 -5 0 -10 -1 -13 -1 -3 -3 -12 -5 -20 -2 -8 -7 -26 -10 -40 -4 -14 -7 -35
-8 -47 -1 -12 -5 -19 -11 -16 -5 4 -7 -3 -4 -15 4 -12 3 -22 -1 -22 -4 0 -8
-6 -9 -12 -3 -46 -14 -94 -25 -107 -10 -12 -9 -13 2 -6 11 6 12 5 5 -6 -4 -8
-10 -21 -11 -29 -8 -41 -12 -69 -18 -110 -3 -25 -8 -61 -11 -80 -10 -53 -13
-88 -18 -162 -2 -37 -6 -71 -9 -75 -2 -4 -5 -95 -6 -202 0 -142 2 -198 12
-209 10 -13 9 -14 -1 -8 -16 10 -13 -25 3 -36 6 -5 5 -8 -3 -8 -7 0 -10 -5 -7
-10 6 -10 13 -72 19 -166 1 -22 6 -46 10 -53 4 -7 6 -15 3 -17 -2 -3 -1 -21 3
-40 5 -23 4 -34 -4 -34 -6 0 -5 -4 3 -9 8 -5 11 -16 8 -25 -4 -9 -3 -16 2 -16
5 0 8 -12 9 -27 0 -16 1 -31 2 -35 1 -5 4 -17 5 -28 1 -11 4 -21 5 -22 1 -2 4
-16 5 -33 2 -16 4 -31 5 -32 3 -4 5 -11 14 -63 5 -25 13 -51 20 -59 9 -12 8
-13 -4 -6 -13 8 -13 7 -1 -8 8 -10 11 -20 8 -23 -3 -3 1 -24 9 -46 8 -23 12
-43 9 -46 -2 -2 0 -13 6 -24 11 -21 18 -48 23 -88 2 -14 8 -37 14 -51 9 -23
30 -92 38 -124 1 -5 18 -56 37 -112 19 -56 32 -104 29 -107 -3 -3 0 -6 6 -6 7
0 12 -8 12 -18 0 -10 6 -24 12 -31 11 -11 10 -12 -1 -6 -9 5 -8 0 3 -17 9 -14
13 -28 9 -31 -3 -4 -1 -7 5 -7 7 0 12 -8 12 -18 0 -10 9 -37 20 -60 11 -22 20
-45 20 -50 0 -5 6 -22 14 -38 18 -35 39 -89 35 -89 -2 0 4 -13 13 -30 9 -16
24 -48 33 -70 9 -22 28 -62 41 -89 13 -28 24 -56 24 -63 0 -7 5 -13 11 -13 6
0 9 -6 6 -14 -3 -8 -3 -16 1 -18 7 -3 68 -122 92 -178 6 -14 19 -38 29 -55 11
-16 20 -37 20 -47 1 -9 4 -18 9 -20 4 -1 22 -32 41 -68 85 -164 97 -186 111
-203 8 -10 14 -21 14 -25 -1 -4 7 -19 17 -34 10 -14 19 -31 19 -37 0 -5 8 -14
17 -20 10 -5 17 -13 16 -18 -3 -12 21 -63 29 -63 5 0 8 -6 8 -14 0 -8 3 -16 8
-18 4 -1 18 -24 31 -50 13 -27 28 -48 33 -48 4 0 8 -5 8 -11 0 -6 14 -31 30
-56 17 -24 30 -48 30 -53 0 -4 3 -10 8 -12 9 -4 41 -57 49 -81 3 -9 9 -17 14
-17 5 0 9 -5 9 -10 0 -6 5 -16 11 -23 5 -7 35 -50 65 -97 30 -47 60 -92 67
-100 7 -8 28 -40 47 -70 19 -30 38 -56 42 -58 5 -2 8 -8 8 -13 0 -6 5 -15 10
-22 6 -7 28 -37 50 -67 22 -30 44 -61 50 -67 6 -7 8 -13 4 -13 -4 0 5 -11 20
-25 15 -14 24 -25 21 -25 -7 0 39 -64 74 -102 14 -16 21 -28 17 -28 -4 0 -1
-6 6 -14 27 -28 58 -66 53 -66 -5 0 19 -32 48 -62 9 -10 17 -20 17 -23 0 -3
17 -27 37 -53 21 -27 47 -61 58 -76 40 -57 100 -131 107 -134 5 -2 8 -8 8 -13
0 -15 122 -169 133 -169 6 0 8 -3 4 -6 -5 -5 10 -27 41 -59 6 -8 12 -16 12
-19 0 -3 8 -14 18 -24 9 -10 28 -33 42 -52 39 -53 74 -95 83 -98 4 -2 7 -10 7
-18 0 -8 4 -14 8 -14 5 0 15 -11 22 -25 7 -13 17 -22 22 -19 4 3 8 -2 8 -10 0
-9 5 -16 10 -16 6 0 10 -7 10 -15 0 -8 4 -15 9 -15 4 0 30 -28 57 -63 27 -34
60 -74 74 -90 14 -15 39 -44 55 -64 45 -55 138 -163 238 -276 15 -17 27 -35
27 -40 0 -4 5 -5 10 -2 6 3 10 2 10 -2 0 -5 15 -26 33 -46 17 -20 57 -64 87
-98 59 -67 113 -125 185 -200 25 -26 45 -52 45 -58 0 -6 4 -11 10 -11 5 0 20
-11 34 -25 14 -14 23 -25 21 -25 -2 0 43 -48 101 -106 57 -59 104 -111 104
-115 0 -5 7 -9 15 -9 8 0 15 -4 15 -8 0 -12 193 -207 203 -204 4 1 7 -2 7 -7
0 -11 161 -171 172 -171 5 0 8 -7 8 -15 0 -8 4 -15 8 -15 5 0 56 -46 115 -103
103 -99 190 -183 396 -377 56 -52 135 -127 176 -167 41 -39 75 -70 75 -69 0 2
31 -27 68 -63 38 -36 110 -104 161 -151 125 -115 156 -143 222 -204 30 -28 97
-89 149 -136 51 -47 114 -105 140 -130 27 -25 65 -60 87 -79 67 -59 184 -165
229 -208 24 -23 44 -41 44 -38 0 2 15 -11 33 -28 19 -18 66 -61 106 -97 39
-36 89 -81 110 -100 21 -19 67 -60 101 -90 35 -30 75 -66 90 -80 15 -14 60
-54 100 -90 40 -36 79 -70 85 -77 7 -7 15 -9 19 -6 3 4 6 -1 6 -10 0 -10 3
-17 8 -17 4 0 23 -15 43 -33 30 -27 82 -73 208 -185 14 -12 38 -32 52 -45 115
-101 154 -135 173 -152 12 -11 48 -42 81 -70 32 -27 69 -60 81 -72 13 -13 28
-23 34 -23 6 0 8 -4 5 -10 -3 -5 -2 -10 4 -10 6 0 23 -12 39 -28 16 -15 57
-52 93 -82 35 -30 69 -59 75 -65 6 -5 32 -28 58 -50 27 -22 63 -53 81 -70 18
-16 52 -46 75 -65 23 -19 57 -49 75 -66 17 -17 41 -37 52 -45 11 -8 41 -33 66
-55 26 -23 65 -57 88 -75 22 -19 58 -51 80 -71 21 -21 39 -36 39 -33 0 3 8 -3
18 -12 10 -10 42 -38 72 -63 29 -25 66 -58 82 -73 15 -15 28 -25 28 -22 0 3
11 -4 24 -17 12 -13 44 -41 70 -63 26 -22 58 -49 71 -60 12 -11 44 -38 70 -60
26 -22 54 -46 61 -53 7 -6 15 -12 18 -12 3 0 19 -13 34 -30 16 -17 34 -30 40
-30 5 0 12 -6 15 -14 12 -32 42 -36 73 -11 16 14 34 28 39 32 71 56 111 89
113 96 2 4 8 7 13 7 6 0 20 10 32 23 12 12 40 36 62 52 22 16 45 34 51 40 6 5
29 24 50 40 21 17 46 38 56 48 10 9 18 14 18 10 0 -5 4 -3 8 3 4 6 34 32 67
59 33 26 63 53 67 59 4 6 8 8 8 4 0 -4 11 3 24 15 49 46 86 77 86 72 0 -3 8 3
18 13 19 17 72 62 152 126 103 83 125 102 142 119 10 9 21 17 25 17 4 0 16 9
28 20 45 43 65 60 73 60 4 0 13 9 20 20 7 11 17 20 23 20 7 0 19 8 28 18 9 9
41 38 71 62 30 25 60 49 66 55 7 5 29 24 49 40 21 17 46 37 57 47 10 9 37 31
60 50 23 18 47 39 54 46 7 6 15 12 17 12 5 0 27 18 98 80 15 14 42 36 59 50
17 14 43 35 58 48 14 13 41 35 60 50 19 15 56 46 81 69 25 23 49 43 53 43 4 0
18 10 30 22 13 13 43 39 66 58 24 19 53 44 66 55 12 11 43 36 67 57 24 20 54
44 65 55 12 10 41 34 64 53 24 19 53 44 65 55 13 11 45 38 71 60 27 22 59 50
71 62 13 12 23 20 23 18 0 -2 11 6 24 18 13 12 45 40 71 62 26 22 52 45 59 50
6 6 43 37 81 69 39 33 77 66 86 75 9 9 27 25 40 35 37 30 139 117 183 156 21
19 50 44 62 55 13 11 44 38 70 60 25 22 58 51 73 64 14 12 45 39 69 59 24 20
63 54 86 77 24 22 65 58 92 80 46 39 79 68 167 149 23 21 64 57 91 80 26 22
63 55 80 71 18 17 66 59 105 95 40 36 93 84 117 107 24 23 44 40 44 39 0 -2
33 29 74 68 41 39 104 97 139 129 36 32 87 79 114 105 26 26 65 62 86 80 21
17 35 32 32 32 -4 0 13 17 37 38 24 20 82 76 130 125 48 48 92 87 98 87 5 0
10 4 10 9 0 5 57 67 128 139 165 168 335 350 462 492 36 40 80 88 99 107 19
18 31 33 28 33 -4 0 10 18 31 39 32 34 64 70 147 168 11 13 31 37 45 52 14 16
39 46 55 67 17 21 39 46 49 56 11 10 17 18 13 18 -4 0 6 12 21 28 15 15 45 50
67 77 22 28 44 55 50 61 5 6 21 26 35 44 23 31 81 105 150 190 15 19 51 67 80
105 29 39 56 72 61 73 5 2 9 10 9 17 0 7 4 15 8 17 4 2 23 24 42 50 18 27 37
48 42 48 4 0 7 3 6 8 -3 10 64 102 74 102 4 0 8 7 8 15 0 8 5 15 10 15 6 0 10
5 10 11 0 6 20 37 45 69 25 32 45 63 45 68 0 6 4 12 8 14 8 3 52 62 116 158
17 25 34 47 38 48 4 2 8 10 8 18 0 8 5 14 10 14 6 0 10 6 10 13 0 8 9 22 20
32 11 10 18 20 16 23 -5 4 4 17 37 53 9 10 17 21 17 24 0 8 31 57 51 80 10 11
19 27 21 35 3 15 7 22 38 59 11 13 20 30 20 37 0 7 4 14 8 16 8 3 38 51 140
216 12 20 25 44 29 52 4 8 9 17 13 20 6 5 91 153 118 205 9 17 18 32 21 35 3
3 13 19 21 35 8 17 21 38 29 48 8 9 11 17 7 17 -4 0 2 13 13 29 12 16 21 34
21 40 0 6 3 11 8 11 4 0 16 20 27 45 11 25 23 45 27 45 5 0 8 3 7 7 -2 17 14
53 24 53 6 0 7 3 4 7 -4 3 -3 11 2 17 8 10 143 273 146 286 6 21 39 86 47 91
5 3 9 9 8 13 -2 12 24 76 32 76 4 0 7 3 6 7 -1 5 4 22 11 38 17 42 100 236
111 260 26 55 48 124 43 129 -4 3 -1 6 5 6 7 0 12 9 12 20 0 11 4 20 10 20 5
0 9 3 8 7 -3 12 26 103 33 103 3 0 6 6 7 13 1 28 12 60 24 75 7 8 11 16 9 16
-2 1 6 33 18 71 13 39 24 75 25 80 1 6 4 15 7 20 6 9 19 58 20 70 0 3 6 23 14
46 17 47 26 85 28 112 1 9 5 17 9 17 4 0 7 8 7 18 0 9 5 35 11 57 6 22 13 49
15 60 2 11 6 29 9 40 18 79 29 122 33 135 3 8 7 35 8 60 2 25 4 46 5 48 2 1 3
5 4 10 10 40 16 75 21 117 4 28 8 61 11 75 6 36 14 115 19 190 2 36 5 65 5 65
7 0 5 77 -2 81 -4 3 -8 11 -8 17 0 7 4 6 11 -3 11 -16 6 560 -6 680 -4 36 -7
80 -7 97 0 18 -4 31 -8 28 -4 -2 -6 11 -5 30 2 21 -2 35 -9 35 -6 0 -4 5 4 10
8 5 10 10 5 10 -6 0 -10 15 -10 33 0 17 -3 39 -7 48 -4 9 -9 31 -10 48 -1 17
-5 31 -8 31 -3 0 -6 15 -6 33 -2 34 -10 78 -21 112 -4 11 -6 28 -4 38 1 9 -3
17 -10 17 -7 0 -10 3 -7 6 4 3 -2 34 -12 70 -10 35 -19 65 -19 67 0 3 -9 32
-17 55 -4 9 -8 24 -9 32 -4 23 -44 133 -56 154 -8 14 -8 16 3 10 7 -4 4 2 -6
14 -11 12 -16 22 -13 22 3 0 0 12 -8 27 -8 15 -12 30 -9 35 3 4 0 8 -5 8 -6 0
-11 5 -11 10 0 6 -9 32 -21 58 -39 88 -46 107 -47 116 0 5 -5 12 -11 16 -6 3
-13 17 -16 30 -2 12 -11 30 -20 40 -8 9 -12 20 -8 23 3 4 1 7 -5 7 -7 0 -12 9
-12 20 0 11 -4 20 -10 20 -5 0 -10 9 -10 20 0 11 -4 20 -10 20 -5 0 -10 5 -10
10 0 6 -11 28 -25 50 -14 22 -22 40 -18 40 4 0 -2 7 -13 15 -10 8 -15 15 -11
15 4 0 -6 20 -23 44 -16 25 -30 49 -30 55 0 6 -5 11 -11 11 -5 0 -7 5 -4 10 3
6 1 10 -5 10 -6 0 -14 8 -18 18 -10 25 -85 136 -94 140 -5 2 -8 10 -8 18 0 8
-4 14 -10 14 -5 0 -10 7 -10 15 0 8 -4 15 -8 15 -4 0 -15 12 -24 28 -9 15 -29
42 -45 61 -15 18 -27 36 -25 38 2 2 -5 12 -15 21 -40 37 -102 120 -95 127 4 5
3 6 -3 3 -5 -3 -18 3 -27 14 -10 10 -16 18 -13 18 6 0 -35 47 -102 117 -24 25
-43 46 -43 48 0 2 -20 25 -45 51 -34 35 -42 49 -33 56 8 5 9 8 2 8 -8 0 -9 13
-4 40 4 22 4 37 0 35 -4 -3 -7 29 -6 71 1 42 -2 78 -7 81 -4 2 -3 11 4 19 6 8
7 14 2 14 -5 0 -9 35 -9 80 1 44 -3 80 -8 80 -5 0 -3 6 3 13 6 8 8 17 4 21 -4
3 -8 46 -10 94 -2 48 -4 92 -4 97 -1 6 2 18 6 28 4 9 3 17 -2 17 -5 0 -9 41
-9 91 1 50 -1 92 -4 94 -3 2 -5 41 -5 87 0 45 -4 86 -10 90 -6 5 -5 8 3 8 10
0 10 5 1 21 -8 16 -8 20 1 14 9 -6 9 -2 1 14 -9 16 -9 21 1 21 8 0 9 3 3 8
-12 8 -13 22 -2 39 4 6 3 14 -1 17 -5 3 -9 22 -10 43 -2 133 -5 162 -16 156
-8 -5 -8 -3 0 8 12 15 11 80 -2 100 -4 7 -3 9 4 5 7 -4 8 2 3 21 -5 16 -5 38
0 50 4 12 5 24 1 27 -8 4 -13 105 -16 298 0 49 -4 88 -8 88 -7 0 -1 47 8 61 2
4 1 10 -4 13 -4 2 -9 42 -11 88 -2 46 -4 117 -6 158 -2 41 -7 147 -11 235 -4
88 -8 184 -8 212 -1 29 -5 53 -11 53 -5 0 -4 5 3 12 7 7 8 17 1 30 -7 13 -6
18 2 18 7 0 8 4 2 13 -11 14 -11 47 0 64 4 6 4 14 -1 17 -7 4 -12 79 -16 233
-1 40 -5 75 -9 79 -4 4 -2 13 4 21 9 10 8 13 -2 13 -11 0 -11 2 1 10 8 5 11
10 5 10 -15 0 -17 140 -2 140 9 0 9 2 0 8 -7 4 -13 43 -15 97 -2 50 -7 93 -13
97 -7 5 -7 8 0 8 10 0 13 47 4 66 -2 5 -4 44 -4 86 0 43 -3 78 -7 78 -4 0 -3
11 2 25 5 13 6 26 2 29 -4 2 -7 45 -7 95 0 50 -2 91 -5 91 -10 0 -5 85 5 92 7
5 7 8 0 8 -6 0 -11 21 -12 48 -3 160 -8 224 -15 228 -5 3 -5 11 0 17 7 11 8
28 2 42 -5 12 -3 52 4 63 4 6 4 12 -1 12 -4 0 -8 26 -8 58 0 31 -4 60 -10 64
-6 5 -5 8 3 8 7 0 11 4 7 9 -3 5 -7 54 -9 109 -2 55 -7 105 -11 112 -6 9 -4
11 5 5 9 -5 11 -4 6 4 -4 7 -10 76 -12 154 -3 78 -6 158 -8 177 -2 19 2 41 8
49 8 11 8 13 -1 8 -9 -6 -12 4 -10 35 0 24 -2 48 -6 55 -4 6 -3 14 3 18 6 4 7
12 3 18 -4 7 -8 41 -10 77 -1 36 -4 107 -6 158 -2 51 -7 95 -10 99 -4 3 -2 12
4 19 6 8 6 14 0 18 -5 4 -6 18 -2 34 5 15 5 36 1 47 -3 11 -6 37 -5 58 0 20
-3 37 -8 37 -5 0 -4 6 2 13 6 8 8 16 5 19 -2 3 -6 42 -6 86 -1 48 -6 78 -12
75 -5 -4 -6 -1 -1 8 14 22 13 49 -2 49 -14 0 -43 -23 -43 -33 0 -3 -26 -32
-57 -65 -32 -32 -92 -96 -133 -141 -41 -45 -96 -103 -122 -130 -26 -27 -44
-52 -41 -55 4 -3 1 -6 -5 -6 -7 0 -21 -9 -32 -20 -11 -11 -18 -20 -16 -20 2 0
-17 -22 -42 -48 -26 -27 -94 -99 -152 -162 -58 -62 -118 -128 -135 -145 -16
-18 -75 -81 -130 -141 -55 -60 -119 -128 -142 -151 -24 -24 -43 -45 -43 -47 0
-3 -35 -41 -78 -85 -43 -45 -77 -81 -75 -81 2 0 -59 -65 -154 -164 -21 -21
-37 -42 -35 -47 1 -5 -2 -9 -8 -9 -10 0 -50 -36 -50 -45 0 -2 -24 -29 -52 -58
-29 -30 -89 -93 -133 -141 -188 -205 -233 -253 -287 -309 -32 -33 -58 -61 -58
-63 0 -3 -25 -29 -55 -59 -30 -30 -53 -55 -51 -55 2 0 -24 -29 -58 -64 -34
-34 -97 -102 -141 -151 -44 -48 -104 -111 -133 -141 -29 -30 -50 -54 -48 -54
3 0 -15 -19 -39 -42 -25 -24 -45 -49 -45 -56 0 -7 -3 -11 -7 -9 -5 2 -18 -6
-31 -19 -12 -13 -21 -24 -18 -24 3 0 -6 -11 -20 -25 -14 -14 -29 -25 -34 -25
-6 0 -9 -4 -8 -8 3 -7 -26 -40 -163 -183 -31 -33 -55 -59 -53 -59 1 0 -24 -27
-57 -61 -32 -33 -59 -65 -59 -71 0 -5 -4 -6 -10 -3 -5 3 -10 2 -10 -4 0 -5
-27 -37 -59 -70 -33 -34 -58 -61 -56 -61 2 0 -23 -27 -56 -61 -32 -33 -59 -62
-59 -63 0 -2 -26 -30 -57 -63 -116 -121 -223 -236 -223 -239 0 -2 -24 -28 -52
-58 -93 -94 -152 -159 -174 -188 -11 -15 -23 -26 -26 -23 -2 3 -11 -6 -18 -20
-11 -21 -19 -25 -44 -21 -17 2 -31 5 -31 6 0 1 -9 3 -19 5 -11 2 -31 7 -45 11
-14 4 -29 7 -33 6 -4 -1 -20 3 -35 9 -15 6 -46 13 -68 15 -22 2 -41 8 -43 14
-2 5 -8 8 -13 5 -4 -3 -33 1 -64 9 -30 8 -55 11 -55 8 0 -4 -5 0 -10 8 -8 12
-10 12 -10 1 0 -11 -3 -11 -15 -1 -8 7 -24 10 -34 7 -11 -3 -21 -1 -23 5 -2 5
-20 10 -41 11 -20 1 -37 5 -37 8 0 4 -10 5 -22 5 -13 -1 -28 1 -33 5 -6 4 -20
6 -30 5 -11 -2 -26 1 -32 6 -7 6 -20 8 -28 4 -8 -3 -15 -2 -15 3 0 5 -11 7
-25 6 -14 -2 -25 0 -25 4 0 4 -12 8 -27 9 -26 1 -45 4 -128 18 -16 3 -47 6
-67 7 -21 1 -38 5 -38 8 0 3 -24 9 -52 12 -29 4 -69 9 -88 12 -19 4 -48 8 -65
10 -16 1 -30 4 -30 4 0 1 -20 4 -45 7 -24 2 -60 7 -80 10 -19 2 -62 7 -95 10
-32 2 -62 9 -66 15 -4 8 -8 7 -11 -2 -3 -8 -9 -9 -18 -4 -8 5 -30 10 -50 11
-52 3 -161 13 -195 18 -16 3 -55 5 -85 7 -30 1 -61 6 -67 12 -9 6 -13 6 -13
-2 0 -7 -5 -9 -12 -5 -7 5 -35 9 -63 11 -27 1 -88 5 -135 8 -47 3 -124 7 -172
8 -49 1 -88 4 -88 7 0 3 -45 5 -100 5 -55 0 -100 3 -100 7 0 3 -13 3 -30 -2
-21 -6 -30 -5 -30 3 0 8 -3 7 -9 -2 -5 -7 -11 -9 -14 -4 -7 11 -77 10 -95 -1
-6 -3 -13 -2 -16 2 -6 11 -597 10 -613 -1 -9 -6 -13 -2 -13 10 0 15 -2 16 -10
3 -5 -8 -12 -11 -16 -7 -4 4 -13 2 -21 -4 -9 -9 -13 -8 -13 0 0 8 -6 9 -18 2
-11 -6 -24 -6 -36 1 -10 6 -16 7 -13 2 3 -5 -47 -9 -110 -9 -63 0 -116 -2
-118 -6 -2 -3 -24 -4 -50 -4 -25 1 -48 -2 -51 -6 -2 -4 -17 -4 -33 1 -15 4
-33 5 -39 1 -5 -3 -42 -6 -81 -6 -39 0 -71 -3 -71 -6 0 -3 -19 -5 -42 -4 -24
1 -51 -2 -60 -7 -12 -6 -18 -5 -18 2 0 7 -5 8 -12 3 -7 -4 -24 -8 -38 -9 -14
-1 -63 -5 -110 -10 -47 -4 -97 -7 -112 -7 -16 0 -28 -3 -28 -7 0 -4 -12 -6
-27 -4 -15 1 -33 -2 -40 -8 -8 -6 -13 -6 -13 -1 0 10 -29 11 -45 1 -6 -3 -31
-5 -56 -5 -26 0 -50 -3 -55 -6 -11 -6 -114 -20 -161 -21 -18 -1 -33 -3 -33 -6
0 -3 -17 -7 -37 -9 -49 -4 -78 -8 -78 -11 0 -1 -13 -3 -30 -3 -16 -1 -34 -5
-40 -8 -5 -3 -25 -5 -42 -5 -18 1 -33 -2 -33 -5 0 -3 -6 -6 -12 -7 -42 -3
-107 -11 -133 -17 -16 -4 -37 -7 -45 -7 -8 0 -22 -2 -30 -5 -8 -3 -22 -7 -30
-9 -20 -3 -89 -14 -120 -18 -14 -2 -26 -5 -27 -6 -2 -1 -12 -4 -23 -5 -11 -1
-21 -3 -22 -5 -2 -1 -16 -4 -33 -6 -16 -3 -37 -7 -45 -11 -13 -6 -27 -8 -87
-14 -10 -1 -24 -6 -30 -12 -7 -5 -13 -7 -13 -4 0 3 -17 1 -37 -5 -21 -5 -49
-11 -63 -14 -47 -9 -65 -12 -87 -18 -94 -24 -142 -33 -148 -28 -3 3 -5 1 -5
-5 0 -28 -47 0 -110 65 -38 40 -70 75 -70 77 0 10 -49 52 -54 47 -3 -3 -6 0
-6 6 0 6 -26 38 -57 72 -32 34 -78 84 -103 110 -25 27 -79 85 -120 129 -41 45
-101 109 -132 143 -32 34 -58 65 -58 70 0 4 -7 8 -15 8 -8 0 -15 4 -15 9 0 5
-19 29 -42 54 -83 87 -143 152 -174 189 -17 20 -34 34 -38 31 -3 -4 -6 -2 -6
4 0 6 -21 34 -47 61 -27 27 -88 94 -138 147 -49 54 -110 120 -135 146 -25 27
-74 80 -110 119 -36 38 -93 100 -127 136 -35 37 -63 71 -63 75 0 5 -7 9 -15 9
-8 0 -15 4 -15 9 0 5 -17 27 -37 49 -21 21 -83 88 -138 147 -55 60 -121 131
-147 158 -27 26 -48 50 -48 52 0 2 -26 30 -57 63 -112 117 -183 193 -183 196
0 2 -33 38 -72 79 -113 117 -168 179 -168 189 0 5 -4 7 -9 4 -5 -4 -11 -2 -13
3 -1 5 -41 51 -88 101 -168 181 -180 194 -180 202 0 4 -7 8 -15 8 -8 0 -15 4
-15 10 0 5 -22 32 -50 60 -27 28 -50 55 -50 60 0 6 -5 10 -11 10 -5 0 -7 4 -4
10 3 6 -1 7 -9 4 -9 -3 -16 -1 -16 5 0 6 -22 34 -49 61 -27 28 -48 50 -47 50
2 0 -24 29 -58 64 -33 36 -98 103 -142 150 -45 47 -81 86 -79 86 2 0 -20 24
-49 54 -28 29 -89 95 -136 147 -47 51 -106 115 -132 142 -27 27 -48 53 -48 58
0 5 -7 9 -15 9 -8 0 -15 4 -15 9 0 5 -21 31 -47 59 -27 27 -65 68 -86 91 -41
45 -54 51 -52 23z m558 -1409 c33 -37 121 -132 213 -229 28 -29 49 -56 46 -59
-3 -3 3 -5 13 -5 10 0 16 -3 13 -6 -4 -3 16 -28 44 -55 27 -27 47 -49 45 -49
-2 0 29 -34 69 -75 41 -42 74 -77 74 -79 0 -2 36 -40 80 -86 44 -46 80 -84 80
-86 0 -2 23 -26 50 -54 28 -28 50 -55 50 -61 0 -6 5 -7 10 -4 6 3 10 2 10 -3
0 -5 27 -38 60 -73 33 -35 60 -67 60 -72 0 -4 5 -5 10 -2 6 3 10 -1 10 -10 0
-9 5 -13 10 -10 6 3 10 0 10 -7 0 -7 17 -29 38 -49 20 -20 71 -73 112 -118
138 -151 158 -170 165 -163 5 4 6 2 2 -3 -3 -6 28 -46 69 -88 41 -43 74 -83
74 -88 0 -6 5 -7 10 -4 6 3 10 2 10 -3 0 -4 28 -38 63 -75 34 -36 96 -102 137
-147 41 -45 100 -108 130 -140 30 -32 96 -102 145 -156 50 -54 99 -107 110
-118 11 -12 19 -24 17 -28 -1 -5 4 -8 10 -8 7 0 22 -14 33 -30 11 -16 26 -30
33 -30 6 0 12 -4 12 -10 0 -5 24 -34 53 -65 30 -30 52 -55 50 -55 -1 0 5 -8
15 -18 9 -11 20 -17 25 -15 4 2 7 -2 7 -11 0 -8 3 -16 8 -18 4 -1 24 -22 44
-45 20 -23 39 -39 42 -35 3 3 6 1 6 -4 0 -6 16 -27 35 -48 19 -21 35 -42 35
-47 0 -5 7 -9 15 -9 8 0 15 -4 15 -9 0 -4 25 -34 56 -65 31 -31 54 -56 51 -56
-3 0 22 -27 55 -60 l59 -60 -26 -10 c-14 -5 -38 -13 -53 -16 -15 -4 -33 -11
-39 -17 -7 -5 -13 -6 -13 -1 0 4 -5 3 -11 -3 -6 -6 -18 -9 -25 -6 -8 3 -14 0
-14 -7 0 -7 -7 -10 -15 -7 -8 4 -17 2 -19 -2 -6 -9 -96 -37 -108 -33 -5 1 -8
-3 -8 -10 0 -6 -3 -9 -6 -6 -3 3 -32 -4 -64 -17 -32 -13 -61 -20 -64 -17 -3 3
-6 0 -6 -7 0 -7 -3 -10 -8 -7 -4 2 -23 -3 -42 -11 -19 -9 -39 -17 -45 -19 -54
-16 -141 -50 -146 -57 -3 -5 -10 -9 -15 -9 -5 0 -19 -4 -32 -9 -13 -5 -30 -9
-38 -9 -8 0 -14 -4 -14 -8 0 -5 -6 -9 -13 -9 -7 0 -39 -12 -71 -26 -32 -15
-62 -25 -66 -22 -5 3 -10 0 -12 -5 -2 -6 -10 -12 -18 -14 -8 -1 -30 -10 -47
-19 -18 -10 -35 -18 -38 -18 -25 -4 -45 -13 -45 -22 0 -6 -3 -7 -6 -4 -4 3
-16 1 -28 -5 -11 -7 -23 -13 -26 -13 -9 -2 -105 -46 -141 -65 -20 -11 -39 -17
-43 -13 -3 3 -6 1 -6 -6 0 -7 -4 -10 -9 -7 -5 4 -11 1 -13 -4 -2 -6 -10 -12
-18 -14 -8 -1 -30 -10 -47 -19 -18 -10 -36 -18 -40 -19 -5 0 -25 -12 -45 -24
-21 -13 -44 -24 -52 -24 -8 0 -17 -4 -20 -8 -3 -5 -40 -26 -83 -47 -43 -21
-81 -43 -85 -49 -4 -6 -8 -8 -8 -3 0 4 -18 -4 -40 -18 -22 -14 -42 -25 -45
-25 -2 0 -39 -20 -81 -45 -41 -25 -79 -45 -83 -45 -5 0 -18 -9 -31 -20 -12
-11 -27 -17 -31 -14 -5 3 -9 1 -9 -5 0 -14 -55 -42 -65 -33 -5 4 -5 2 -1 -5 4
-7 -3 -14 -16 -19 -12 -3 -26 -11 -32 -16 -6 -5 -36 -24 -66 -43 -30 -19 -62
-39 -70 -45 -8 -6 -43 -28 -77 -50 -34 -22 -64 -44 -68 -50 -4 -6 -11 -8 -16
-5 -5 4 -12 -1 -15 -9 -3 -9 -11 -16 -16 -16 -9 0 -30 -15 -85 -61 -7 -5 -13
-7 -13 -4 0 3 -9 -3 -19 -12 -29 -27 -42 -36 -97 -74 -50 -35 -68 -48 -102
-79 -10 -8 -30 -23 -45 -33 l-27 -17 3 103 c2 56 7 109 12 117 5 9 4 15 -3 18
-7 2 -10 8 -6 13 11 18 13 49 2 49 -7 0 -6 6 2 15 10 12 10 15 -1 15 -9 0 -10
3 -3 8 5 4 10 39 11 78 0 40 4 77 7 83 4 6 1 11 -6 11 -8 0 -9 3 -3 8 6 4 12
43 13 87 1 44 3 135 4 202 2 68 5 123 8 123 3 0 5 35 5 78 0 42 5 80 10 84 6
5 5 8 -4 8 -11 0 -11 3 0 17 12 14 12 16 0 9 -11 -7 -11 -5 -3 10 6 12 7 25 1
36 -6 11 -5 19 1 23 8 5 7 12 -2 23 -7 9 -8 13 -2 10 7 -5 11 19 12 70 3 100
10 267 12 267 6 0 4 124 -3 139 -6 12 -6 16 1 12 7 -4 11 8 10 33 0 21 3 44 6
50 4 6 2 11 -5 11 -10 0 -10 3 -2 11 6 6 9 18 6 26 -3 8 0 19 8 24 9 5 10 9 2
9 -12 0 -12 54 0 66 3 4 2 15 -4 26 -7 14 -7 23 2 34 9 11 9 14 0 14 -7 0 -9
5 -5 12 4 6 8 37 9 67 2 31 4 61 5 66 1 6 1 12 0 15 -5 12 -5 60 0 60 4 0 9
80 10 170 1 143 8 261 14 267 3 3 1 12 -5 20 -6 7 -8 13 -3 13 5 0 9 45 9 100
0 55 2 100 5 100 3 0 5 28 5 63 0 34 4 65 10 69 6 5 6 8 -2 8 -7 0 -10 6 -8
13 3 6 7 69 9 140 2 70 6 130 9 134 4 3 2 14 -4 24 -5 11 -6 19 -2 19 5 0 8
32 8 71 0 39 3 73 8 76 5 3 3 9 -4 14 -12 7 -12 9 0 9 11 0 11 3 1 15 -7 8 -8
15 -4 15 5 0 9 31 8 70 0 42 3 67 9 63 5 -3 5 2 -1 13 -7 13 -7 25 0 37 7 15
7 18 -2 12 -9 -6 -9 -3 -1 12 7 14 7 23 -1 31 -8 8 -8 12 -1 12 6 0 9 14 8 30
-1 17 1 33 6 36 5 3 6 10 2 17 -3 6 -6 29 -5 51 1 23 3 63 4 89 0 26 5 50 10
53 4 3 6 10 2 15 -10 17 -15 61 -6 55 5 -3 6 11 2 34 -4 22 -4 38 -1 36 4 -3
7 21 8 52 1 109 3 132 9 132 3 0 20 -16 37 -37z m13021 -48 c0 -47 3 -85 8
-85 4 0 3 -11 -2 -25 -5 -14 -6 -25 -2 -25 4 0 8 -37 8 -83 4 -191 7 -237 15
-243 5 -3 6 -11 2 -17 -11 -17 -11 -50 0 -64 6 -9 5 -13 -3 -13 -8 0 -9 -4 -3
-12 5 -7 9 -39 8 -71 -1 -32 2 -60 7 -63 4 -3 4 -13 -2 -23 -5 -10 -7 -21 -4
-23 4 -4 16 -214 14 -255 0 -28 0 -41 4 -118 2 -44 5 -114 7 -155 2 -41 8 -78
14 -82 7 -5 7 -8 -1 -8 -6 0 -9 -14 -7 -32 2 -18 4 -59 4 -90 1 -41 4 -56 12
-52 8 4 7 2 0 -7 -16 -16 -17 -43 -2 -33 8 5 8 1 0 -13 -7 -14 -7 -23 1 -31 9
-9 9 -12 -1 -12 -7 0 -10 -4 -7 -8 3 -5 6 -26 7 -48 1 -21 7 -45 13 -53 8 -11
8 -13 -1 -7 -9 5 -13 0 -13 -14 0 -13 4 -19 12 -14 7 5 8 3 2 -7 -13 -21 -14
-39 -1 -39 7 0 5 -5 -3 -10 -8 -5 -10 -10 -5 -10 6 0 11 -45 12 -113 1 -96 9
-291 15 -392 1 -17 -1 -36 -6 -43 -4 -7 -3 -12 1 -12 9 0 12 -57 16 -262 1
-65 5 -118 8 -118 10 0 5 -44 -6 -52 -7 -5 -6 -8 1 -8 6 0 11 -34 13 -87 3
-135 5 -157 15 -172 6 -9 5 -12 -1 -8 -6 4 -10 -7 -9 -28 0 -19 3 -35 6 -35 3
0 6 -9 6 -20 0 -11 -3 -20 -6 -20 -4 0 -7 -7 -7 -15 0 -8 3 -15 7 -15 8 0 6
-67 -2 -76 -4 -4 -4 -12 -1 -18 11 -16 12 -27 18 -181 3 -77 8 -189 11 -250 3
-60 6 -147 7 -192 2 -45 6 -85 9 -89 4 -4 3 -15 -3 -25 -7 -14 -6 -19 2 -19 8
0 8 -4 -1 -15 -7 -8 -9 -15 -4 -15 5 0 9 -42 9 -93 0 -50 3 -97 7 -102 4 -6 3
-17 -1 -24 -6 -10 -16 -5 -40 18 -17 17 -31 27 -31 24 0 -4 -13 6 -30 22 -16
16 -30 26 -30 22 0 -3 -10 4 -23 16 -35 33 -66 57 -75 57 -4 0 -19 10 -34 23
-61 51 -68 57 -68 52 0 -5 -13 4 -45 33 -7 6 -18 12 -23 12 -5 0 -17 9 -27 20
-10 11 -24 20 -31 20 -7 0 -14 3 -16 8 -1 4 -32 26 -68 49 -36 24 -71 47 -77
53 -7 6 -13 8 -13 5 0 -5 -12 3 -44 32 -8 7 -16 10 -18 7 -3 -2 -11 2 -18 11
-7 8 -19 15 -26 15 -8 0 -14 4 -14 9 0 5 -9 13 -20 16 -11 3 -26 12 -32 18 -7
7 -29 20 -48 29 -71 35 -152 85 -161 99 -7 12 -9 12 -9 -1 0 -12 -2 -12 -9 -2
-8 13 -59 42 -231 129 -52 26 -97 50 -100 53 -3 3 -25 14 -50 25 -25 10 -52
25 -61 32 -8 7 -23 13 -32 13 -9 0 -17 5 -17 10 0 6 -9 10 -19 10 -11 0 -26 6
-33 13 -7 6 -18 13 -23 14 -6 1 -53 21 -105 46 -91 42 -113 52 -135 57 -5 1
-19 9 -30 16 -11 8 -27 14 -37 14 -10 0 -18 4 -18 10 0 5 -3 9 -7 8 -5 -1 -28
7 -53 18 -25 10 -48 18 -52 16 -5 -1 -8 3 -8 10 0 6 -3 8 -6 5 -4 -3 -16 -1
-28 5 -11 7 -24 11 -28 10 -5 -1 -8 3 -8 10 0 6 -3 8 -7 5 -3 -4 -12 -2 -20 4
-7 6 -13 9 -13 5 0 -3 -16 3 -36 14 -19 11 -33 16 -29 11 3 -6 -11 -2 -32 8
-32 16 -56 27 -83 36 -3 1 -13 5 -22 9 -9 4 -25 9 -35 11 -10 2 -20 4 -23 5
-3 1 -8 2 -12 1 -5 0 -8 4 -8 9 0 6 -9 10 -20 10 -11 0 -20 5 -20 11 0 5 -4 8
-9 5 -5 -4 -22 -1 -38 5 -15 6 -29 10 -31 10 -1 -1 -16 6 -32 14 -17 9 -30 13
-30 9 0 -4 -7 0 -17 7 -9 8 -19 13 -22 13 -7 -2 -21 2 -48 13 -10 3 -22 5 -27
4 -4 -1 -14 3 -20 9 -7 5 -16 7 -19 3 -4 -3 -7 0 -7 7 0 7 -3 11 -6 8 -3 -4
-36 4 -74 17 -38 13 -71 21 -73 18 -3 -2 -8 0 -11 5 -3 6 16 34 44 63 27 29
50 54 50 55 0 1 25 28 55 59 30 32 55 62 55 67 0 5 5 6 10 3 6 -3 10 -2 10 2
0 5 23 33 50 62 28 29 50 58 50 63 0 5 5 6 10 3 6 -3 10 -2 10 4 0 5 25 35 56
65 30 31 53 56 51 56 -2 0 28 33 67 73 39 41 112 118 161 172 50 54 115 124
145 157 30 32 89 95 130 140 41 45 108 115 147 156 40 41 70 79 67 83 -3 5 0
9 6 9 6 0 32 23 58 51 26 28 67 73 92 99 25 26 81 87 125 135 44 48 94 101
110 119 17 17 49 52 72 78 23 25 44 43 47 40 3 -3 6 0 6 6 0 6 12 24 28 40 15
16 68 73 117 126 50 53 116 124 148 157 31 33 57 62 57 64 0 2 29 33 65 70 36
36 66 68 67 73 2 4 6 6 11 4 4 -1 7 2 7 7 0 5 19 30 43 54 40 42 147 157 271
292 31 33 56 63 56 67 0 4 9 10 20 13 11 3 20 11 20 17 0 6 29 39 64 74 35 35
61 66 58 69 -3 3 1 5 9 5 11 0 14 -18 13 -85z m-9722 -7119 c5 -7 8 -8 8 -1 0
7 25 10 63 9 34 -1 62 -3 62 -4 0 -1 23 -4 50 -5 28 -2 66 -6 85 -10 19 -3 51
-8 70 -10 19 -3 46 -9 60 -14 34 -13 83 -25 93 -23 4 1 7 -2 7 -7 0 -5 8 -8
18 -6 9 1 34 -6 54 -16 21 -11 44 -19 53 -19 8 0 15 -4 15 -10 0 -5 9 -10 19
-10 11 0 27 -7 35 -16 9 -8 16 -13 16 -9 0 3 11 -2 25 -11 13 -8 30 -12 36 -8
8 4 9 3 5 -4 -4 -7 -1 -12 8 -12 9 0 16 -4 16 -9 0 -5 8 -11 18 -15 24 -8 56
-29 65 -43 4 -7 14 -13 20 -13 7 0 19 -9 27 -19 7 -11 17 -18 22 -15 4 3 8 0
8 -6 0 -6 5 -8 10 -5 6 3 10 -1 10 -9 0 -9 4 -16 10 -16 16 0 142 -131 185
-194 47 -68 56 -82 61 -98 4 -10 9 -18 13 -18 8 0 44 -76 47 -99 2 -8 9 -18
16 -22 7 -5 10 -9 6 -9 -6 0 9 -57 29 -110 24 -63 39 -300 21 -334 -8 -14 -7
-17 3 -11 7 5 10 4 6 -2 -7 -10 -17 -62 -22 -104 -1 -14 -7 -35 -14 -47 -6
-12 -10 -25 -10 -29 2 -8 -2 -21 -29 -83 -8 -19 -16 -40 -18 -47 -1 -7 -12
-26 -24 -43 -12 -16 -18 -30 -13 -30 4 0 3 -4 -2 -8 -6 -4 -24 -28 -40 -54
-17 -27 -33 -48 -37 -48 -5 0 -8 -6 -8 -13 0 -7 -8 -20 -17 -28 -10 -9 -35
-35 -55 -58 -21 -22 -39 -41 -41 -41 -2 0 -27 -23 -56 -50 -29 -28 -66 -57
-82 -65 -16 -9 -29 -20 -29 -26 0 -6 -4 -7 -10 -4 -5 3 -10 2 -10 -2 0 -5 -17
-17 -37 -28 -21 -11 -41 -24 -44 -28 -3 -5 -10 -9 -15 -9 -19 -1 -54 -22 -54
-31 0 -6 -3 -8 -6 -4 -4 3 -28 -5 -55 -19 -27 -13 -49 -21 -49 -18 0 4 -6 1
-14 -5 -8 -6 -20 -10 -27 -9 -8 2 -13 -2 -12 -7 1 -6 -6 -11 -15 -11 -24 -2
-63 -11 -93 -22 -14 -6 -39 -13 -55 -16 -16 -2 -40 -7 -54 -11 -41 -9 -112
-18 -157 -19 -24 -1 -43 -5 -43 -10 0 -5 -6 -3 -14 3 -8 7 -17 8 -19 4 -5 -8
-69 -8 -154 0 -27 3 -40 0 -36 -6 4 -6 1 -7 -6 -3 -12 8 -34 12 -106 21 -22 2
-60 9 -85 14 -25 5 -48 7 -52 5 -5 -3 -8 -1 -8 5 0 5 -8 9 -17 9 -10 0 -38 7
-62 16 -24 9 -47 14 -51 11 -5 -3 -10 -1 -12 4 -1 5 -12 11 -23 13 -11 1 -22
6 -25 10 -3 3 -14 8 -25 10 -11 1 -22 5 -25 8 -3 3 -36 21 -75 39 -76 38 -146
80 -157 96 -4 5 -8 7 -8 3 0 -8 -29 13 -67 50 -13 12 -27 22 -31 22 -4 0 -44
38 -90 85 -45 47 -80 85 -77 85 4 0 -1 7 -9 16 -22 21 -68 90 -97 144 -13 25
-26 47 -29 50 -3 3 -6 10 -8 15 -3 13 -51 150 -53 150 -2 0 -17 78 -25 140
-10 72 -7 265 5 265 3 0 6 12 7 28 1 41 8 76 16 82 4 3 10 20 13 38 3 18 10
41 15 50 5 9 23 49 41 87 18 39 35 72 39 75 3 3 17 23 30 45 14 22 31 49 40
59 31 40 186 193 219 217 18 13 42 32 52 42 11 9 19 14 19 10 0 -5 7 1 15 11
8 11 15 16 15 12 0 -4 20 7 45 24 25 17 45 28 45 24 0 -4 8 0 18 8 19 17 53
32 65 30 4 -1 7 3 7 10 0 6 3 9 6 5 4 -3 24 3 45 14 22 11 39 17 39 14 0 -3
12 3 27 12 15 10 30 17 33 16 3 -1 23 2 45 8 22 6 47 13 55 14 8 2 15 4 15 6
0 1 9 3 20 5 11 1 31 6 45 9 14 4 42 7 63 8 20 1 37 4 37 7 0 4 25 6 55 5 30
0 55 2 55 5 0 10 65 6 72 -4z m6302 2 c11 11 116 10 116 -1 0 -5 7 -4 15 3 11
9 15 9 15 1 0 -9 5 -9 20 -1 11 6 20 7 20 2 0 -4 10 -8 23 -9 50 -1 212 -27
212 -33 0 -2 36 -10 58 -12 9 -1 17 -5 17 -8 0 -4 6 -7 13 -8 24 -2 47 -8 53
-15 4 -4 13 -7 21 -7 7 0 32 -9 56 -19 23 -10 56 -25 74 -32 17 -7 30 -16 27
-20 -2 -4 4 -6 13 -5 16 3 25 -2 57 -31 8 -7 16 -9 20 -6 3 4 6 1 6 -6 0 -7 5
-9 10 -6 6 3 10 2 10 -4 0 -5 8 -12 19 -16 10 -3 28 -13 39 -23 11 -9 30 -24
43 -32 41 -28 198 -183 193 -192 -3 -4 2 -8 10 -8 9 0 16 -4 16 -8 0 -5 8 -17
18 -28 24 -28 41 -54 55 -86 6 -16 15 -28 19 -28 4 0 8 -6 8 -14 0 -7 7 -19
15 -26 9 -7 13 -15 11 -18 -3 -2 0 -14 6 -26 7 -11 13 -23 13 -26 0 -3 6 -15
13 -27 7 -13 9 -23 5 -23 -4 0 -2 -5 5 -12 7 -7 12 -22 12 -35 0 -13 4 -23 8
-23 5 0 9 -6 9 -12 1 -7 4 -31 8 -53 6 -42 15 -113 18 -155 1 -14 6 -31 11
-39 6 -9 5 -12 -2 -7 -6 4 -10 -6 -8 -26 1 -18 -2 -38 -7 -45 -4 -6 -3 -14 3
-18 6 -4 7 -13 1 -23 -8 -15 -18 -67 -25 -126 -2 -11 -8 -22 -14 -24 -6 -2 -8
-10 -5 -18 3 -8 0 -21 -7 -29 -7 -8 -9 -15 -6 -15 4 0 1 -12 -7 -27 -8 -16
-25 -50 -38 -78 -13 -27 -30 -56 -36 -63 -7 -7 -13 -20 -13 -28 0 -8 -4 -14
-10 -14 -5 0 -10 -5 -10 -10 0 -10 -8 -22 -37 -55 -7 -7 -13 -16 -13 -19 0 -3
-13 -19 -30 -36 -16 -17 -30 -36 -30 -42 0 -6 -2 -9 -5 -6 -3 3 -32 -21 -65
-54 -33 -32 -62 -58 -66 -58 -3 0 -22 -13 -41 -30 -18 -16 -39 -30 -45 -30 -6
0 -16 -6 -22 -14 -14 -19 -206 -120 -206 -109 0 4 -4 2 -8 -5 -5 -7 -17 -14
-28 -16 -10 -2 -32 -9 -49 -16 -16 -6 -31 -11 -32 -11 -2 0 -21 -6 -44 -14
-23 -9 -51 -17 -63 -20 -12 -2 -31 -6 -43 -9 -13 -4 -33 -8 -45 -11 -29 -7
-115 -17 -150 -17 -16 0 -28 -3 -28 -7 0 -4 -9 -7 -20 -7 -11 0 -20 4 -20 8 0
4 -11 3 -25 -2 -16 -6 -26 -6 -31 1 -3 6 -11 6 -17 1 -7 -5 -28 -7 -47 -6 -49
3 -171 15 -195 18 -85 11 -125 19 -125 24 0 4 -10 8 -22 8 -46 3 -68 8 -68 16
0 4 -3 7 -7 6 -15 -3 -83 14 -83 21 0 4 -6 8 -12 8 -13 0 -59 19 -136 57 -93
45 -117 59 -122 66 -3 4 -20 15 -37 24 -18 9 -33 22 -33 28 0 6 -3 9 -6 5 -3
-3 -15 3 -27 13 -12 10 -33 28 -46 39 -13 12 -29 21 -34 21 -6 0 -8 3 -4 6 3
3 -8 18 -26 32 -18 15 -39 35 -47 45 -8 11 -33 38 -55 60 -21 23 -38 43 -37
44 1 2 -15 29 -35 60 -21 32 -36 61 -35 66 1 4 -3 7 -9 7 -5 0 -7 5 -4 10 3 6
3 10 -2 10 -11 0 -33 49 -33 72 0 10 -7 21 -15 24 -8 4 -12 10 -9 16 3 5 2 17
-2 26 -9 21 -15 43 -16 60 -1 6 -4 12 -8 12 -4 0 -7 6 -7 13 -1 32 -12 97 -17
106 -4 5 -2 13 4 16 8 5 7 11 -1 22 -10 12 -10 16 2 24 10 6 11 9 1 9 -9 0
-12 15 -9 58 1 31 6 63 11 70 4 7 2 12 -4 12 -6 0 -9 4 -5 9 3 6 8 28 11 51 3
23 7 47 8 53 1 7 4 17 8 22 3 6 9 26 13 45 4 19 12 41 17 48 6 6 8 12 4 12 -4
0 0 13 9 30 8 16 15 31 13 32 -1 2 11 22 25 45 15 24 27 46 27 51 0 8 50 80
97 140 30 39 144 152 153 152 4 0 10 7 14 15 3 8 12 15 21 15 8 0 15 4 15 9 0
8 113 91 125 91 4 0 19 9 35 20 15 11 30 17 34 13 3 -3 6 -1 6 5 0 7 6 12 13
12 7 0 18 5 25 12 6 6 22 13 34 15 13 2 25 8 26 13 2 6 10 10 18 10 8 0 32 9
53 20 21 10 41 17 43 14 3 -2 21 3 41 11 20 8 49 17 64 19 16 2 35 6 43 10 8
3 26 8 40 10 14 3 25 5 25 6 0 1 42 6 129 14 33 3 61 8 64 11 3 2 12 0 22 -5
10 -5 21 -6 24 -2z m76 -7988 c0 -5 -4 -10 -8 -10 -4 0 -26 -16 -48 -36 -57
-52 -105 -94 -158 -139 -26 -22 -63 -53 -81 -70 -54 -48 -76 -68 -150 -130
-38 -32 -75 -64 -81 -69 -6 -6 -35 -31 -64 -56 -29 -25 -60 -52 -70 -60 -10
-8 -36 -31 -59 -50 -23 -19 -52 -44 -65 -55 -12 -11 -41 -36 -65 -55 -24 -19
-56 -47 -71 -62 -16 -16 -31 -28 -33 -28 -3 0 -22 -16 -43 -34 -22 -19 -73
-64 -116 -99 -90 -76 -95 -81 -129 -110 -14 -12 -44 -37 -67 -55 -22 -19 -51
-43 -64 -53 -91 -77 -115 -98 -152 -131 -22 -21 -44 -38 -48 -38 -4 0 -18 -10
-30 -22 -24 -24 -73 -65 -142 -121 -53 -43 -164 -136 -199 -167 -16 -14 -31
-25 -35 -25 -3 0 -17 -11 -32 -25 -43 -41 -120 -107 -120 -103 0 2 -29 -21
-65 -52 -36 -30 -70 -55 -76 -55 -5 0 -7 -5 -4 -10 3 -6 2 -10 -4 -10 -5 0
-29 -17 -53 -37 -24 -21 -59 -49 -77 -63 -18 -14 -45 -36 -61 -50 -55 -49 -68
-58 -74 -53 -3 4 -6 1 -6 -5 0 -6 -36 -39 -80 -74 -44 -35 -80 -66 -80 -70 0
-5 -5 -8 -10 -8 -6 0 -27 -15 -46 -33 -20 -17 -38 -31 -40 -29 -3 1 -15 -8
-27 -20 -12 -13 -44 -41 -72 -63 -27 -22 -55 -44 -61 -50 -34 -30 -55 -45 -64
-45 -6 0 -10 -4 -10 -8 0 -5 -13 -18 -29 -30 l-29 -21 -33 27 c-18 15 -45 39
-59 55 -15 15 -30 27 -34 27 -4 0 -17 10 -30 23 -12 12 -46 42 -76 67 -29 25
-58 50 -64 55 -6 6 -40 35 -76 65 -108 92 -122 104 -146 128 -13 12 -26 22
-29 22 -3 0 -19 13 -35 30 -16 16 -32 30 -34 30 -5 0 -64 53 -133 118 -13 12
-25 22 -27 22 -4 0 -69 57 -123 108 -19 17 -37 32 -40 32 -2 0 -17 12 -32 28
-16 15 -50 46 -77 68 -27 23 -61 52 -75 65 -14 13 -39 35 -55 49 -46 39 -176
153 -194 170 -9 8 -47 42 -85 75 -38 33 -80 70 -93 83 -12 12 -25 22 -27 22
-2 0 -19 15 -38 33 -33 31 -127 115 -177 157 -34 29 -177 159 -206 188 -13 12
-25 22 -28 22 -2 0 -20 15 -38 33 -19 17 -67 61 -107 97 -40 36 -90 81 -111
100 -52 47 -172 156 -197 178 -20 17 -167 150 -207 187 -12 11 -69 63 -126
115 -58 52 -111 101 -118 108 -11 10 590 12 3007 12 2007 0 3021 -3 3021 -10z"/>
</g>
</svg>
